<?xml version="1.0" encoding="UTF-8" standalone="no"?>
<!-- Created with Inkscape (http://www.inkscape.org/) -->

<svg
   xmlns:dc="http://purl.org/dc/elements/1.1/"
   xmlns:cc="http://creativecommons.org/ns#"
   xmlns:rdf="http://www.w3.org/1999/02/22-rdf-syntax-ns#"
   xmlns:svg="http://www.w3.org/2000/svg"
   xmlns="http://www.w3.org/2000/svg"
   xmlns:sodipodi="http://sodipodi.sourceforge.net/DTD/sodipodi-0.dtd"
   xmlns:inkscape="http://www.inkscape.org/namespaces/inkscape"
   width="50.039986mm"
   height="24.863272mm"
   viewBox="0 0 177.30704 88.098206"
   id="svg2"
   version="1.1"
   inkscape:version="0.91 r13725"
   sodipodi:docname="logo.svg">
  <defs
     id="defs4">
    <marker
       inkscape:stockid="Arrow2Mend"
       orient="auto"
       refY="0"
       refX="0"
       id="Arrow2Mend"
       style="overflow:visible"
       inkscape:isstock="true">
      <path
         id="path4263"
         style="fill:#000000;fill-opacity:1;fill-rule:evenodd;stroke:#000000;stroke-width:0.625;stroke-linejoin:round;stroke-opacity:1"
         d="M 8.7185878,4.0337352 -2.2072895,0.01601326 8.7185884,-4.0017078 c -1.7454984,2.3720609 -1.7354408,5.6174519 -6e-7,8.035443 z"
         transform="scale(-0.6,-0.6)"
         inkscape:connector-curvature="0" />
    </marker>
    <marker
       inkscape:stockid="Arrow1Lstart"
       orient="auto"
       refY="0"
       refX="0"
       id="Arrow1Lstart"
       style="overflow:visible"
       inkscape:isstock="true">
      <path
         id="path4236"
         d="M 0,0 5,-5 -12.5,0 5,5 0,0 Z"
         style="fill:#000000;fill-opacity:1;fill-rule:evenodd;stroke:#000000;stroke-width:1pt;stroke-opacity:1"
         transform="matrix(0.8,0,0,0.8,10,0)"
         inkscape:connector-curvature="0" />
    </marker>
  </defs>
  <sodipodi:namedview
     id="base"
     pagecolor="#ffffff"
     bordercolor="#666666"
     borderopacity="1.0"
     inkscape:pageopacity="0.0"
     inkscape:pageshadow="2"
     inkscape:zoom="2"
     inkscape:cx="69.756695"
     inkscape:cy="54.426644"
     inkscape:document-units="px"
     inkscape:current-layer="text6164"
     showgrid="false"
     inkscape:window-width="1366"
     inkscape:window-height="723"
     inkscape:window-x="0"
     inkscape:window-y="19"
     inkscape:window-maximized="1"
     fit-margin-top="0"
     fit-margin-left="0"
     fit-margin-right="0"
     fit-margin-bottom="0">
    <inkscape:grid
       type="xygrid"
       id="grid4136"
       originx="-267.19436"
       originy="-324.46189" />
  </sodipodi:namedview>
  <metadata
     id="metadata7">
    <rdf:RDF>
      <cc:Work
         rdf:about="">
        <dc:format>image/svg+xml</dc:format>
        <dc:type
           rdf:resource="http://purl.org/dc/dcmitype/StillImage" />
        <dc:title></dc:title>
      </cc:Work>
    </rdf:RDF>
  </metadata>
  <g
     inkscape:label="Calque 1"
     inkscape:groupmode="layer"
     id="layer1"
     transform="translate(-267.19436,-639.80212)">
    <g
       id="g4160">
      <path
         inkscape:connector-curvature="0"
         id="path4138"
         d="m 90,397.3622 25,0 10,-30 -25,0 10,-30 25,0"
         style="fill:none;fill-rule:evenodd;stroke:#000000;stroke-width:1px;stroke-linecap:butt;stroke-linejoin:miter;stroke-opacity:1" />
      <path
         inkscape:connector-curvature="0"
         id="path4140"
         d="m 140,367.3622 -10,30 20,0"
         style="fill:none;fill-rule:evenodd;stroke:#000000;stroke-width:1px;stroke-linecap:butt;stroke-linejoin:miter;stroke-opacity:1" />
      <path
         inkscape:connector-curvature="0"
         id="path4142"
         d="m 135,382.3622 20,0"
         style="fill:none;fill-rule:evenodd;stroke:#000000;stroke-width:1px;stroke-linecap:butt;stroke-linejoin:miter;stroke-opacity:1" />
      <path
         inkscape:connector-curvature="0"
         id="path4144"
         d="m 140,367.3622 20,0"
         style="fill:none;fill-rule:evenodd;stroke:#000000;stroke-width:1px;stroke-linecap:butt;stroke-linejoin:miter;stroke-opacity:1" />
      <path
         inkscape:connector-curvature="0"
         id="path4146"
         d="m 175,367.3622 -10,30 20,0 10,-30 z"
         style="fill:none;fill-rule:evenodd;stroke:#000000;stroke-width:1px;stroke-linecap:butt;stroke-linejoin:miter;stroke-opacity:1" />
      <path
         inkscape:connector-curvature="0"
         id="path4148"
         d="m 180,387.3622 10,20"
         style="fill:none;fill-rule:evenodd;stroke:#000000;stroke-width:1px;stroke-linecap:butt;stroke-linejoin:miter;stroke-opacity:1" />
      <path
         inkscape:connector-curvature="0"
         id="path4150"
         d="m 210,367.3622 -10,30 20,0 10,-30"
         style="fill:none;fill-rule:evenodd;stroke:#000000;stroke-width:1px;stroke-linecap:butt;stroke-linejoin:miter;stroke-opacity:1" />
      <path
         inkscape:connector-curvature="0"
         id="path4152"
         d="m 245,367.3622 -10,30 20,0 10,-30 z"
         style="fill:none;fill-rule:evenodd;stroke:#000000;stroke-width:1px;stroke-linecap:butt;stroke-linejoin:miter;stroke-opacity:1" />
      <path
         inkscape:connector-curvature="0"
         id="path4154"
         d="m 280,367.3622 -10,30"
         style="fill:none;fill-rule:evenodd;stroke:#000000;stroke-width:1px;stroke-linecap:butt;stroke-linejoin:miter;stroke-opacity:1" />
      <path
         inkscape:connector-curvature="0"
         id="path4156"
         d="m 285,397.3622 10,-30 20,0 -10,30"
         style="fill:none;fill-rule:evenodd;stroke:#000000;stroke-width:1px;stroke-linecap:butt;stroke-linejoin:miter;stroke-opacity:1" />
      <path
         inkscape:connector-curvature="0"
         id="path4158"
         d="m 310,382.3622 -20,0"
         style="fill:none;fill-rule:evenodd;stroke:#000000;stroke-width:1px;stroke-linecap:butt;stroke-linejoin:miter;stroke-opacity:1" />
    </g>
    <path
       style="fill:none;fill-rule:evenodd;stroke:#000000;stroke-width:1px;stroke-linecap:butt;stroke-linejoin:miter;stroke-opacity:1"
       d="M 76.164298,483.94961 C 99.550263,514.558 110,462.3622 113.41299,449.90197 l -25.000005,0 c 2.896754,-8.13494 7.225232,-18.03351 20.521285,-23.22213 13.29605,-5.18861 35.55967,-5.66728 59.93511,-3.95717 66.13062,4.63953 109.14733,24.49419 108.35383,23.26407"
       id="path4138-6"
       inkscape:connector-curvature="0"
       sodipodi:nodetypes="cccssc" />
    <path
       style="fill:none;fill-rule:evenodd;stroke:#000000;stroke-width:1px;stroke-linecap:butt;stroke-linejoin:miter;stroke-opacity:1"
       d="m 128.41298,449.90197 -9.99999,30 19.99999,0"
       id="path4140-7"
       inkscape:connector-curvature="0" />
    <path
       style="fill:none;fill-rule:evenodd;stroke:#000000;stroke-width:1px;stroke-linecap:butt;stroke-linejoin:miter;stroke-opacity:1"
       d="m 123.41299,464.90197 19.99999,0"
       id="path4142-5"
       inkscape:connector-curvature="0" />
    <path
       style="fill:none;fill-rule:evenodd;stroke:#000000;stroke-width:1px;stroke-linecap:butt;stroke-linejoin:miter;stroke-opacity:1"
       d="m 128.41298,449.90197 20,0"
       id="path4144-3"
       inkscape:connector-curvature="0" />
    <path
       style="fill:none;fill-rule:evenodd;stroke:#000000;stroke-width:1px;stroke-linecap:butt;stroke-linejoin:miter;stroke-opacity:1"
       d="m 163.41298,449.90197 -10,30 20,0 10,-30 z"
       id="path4146-5"
       inkscape:connector-curvature="0" />
    <path
       style="fill:none;fill-rule:evenodd;stroke:#000000;stroke-width:1px;stroke-linecap:butt;stroke-linejoin:miter;stroke-opacity:1"
       d="m 168.41298,469.90197 10,20"
       id="path4148-6"
       inkscape:connector-curvature="0" />
    <path
       style="fill:none;fill-rule:evenodd;stroke:#000000;stroke-width:1px;stroke-linecap:butt;stroke-linejoin:miter;stroke-opacity:1"
       d="m 198.41298,449.90197 -10,30 20,0 10,-30"
       id="path4150-2"
       inkscape:connector-curvature="0" />
    <path
       style="fill:none;fill-rule:evenodd;stroke:#000000;stroke-width:1px;stroke-linecap:butt;stroke-linejoin:miter;stroke-opacity:1"
       d="m 233.41298,449.90197 -10,30 20,0 10,-30 z"
       id="path4152-9"
       inkscape:connector-curvature="0" />
    <path
       style="fill:none;fill-rule:evenodd;stroke:#000000;stroke-width:1px;stroke-linecap:butt;stroke-linejoin:miter;stroke-opacity:1"
       d="m 268.41298,449.90197 -10,30"
       id="path4154-1"
       inkscape:connector-curvature="0" />
    <path
       style="fill:none;fill-rule:evenodd;stroke:#000000;stroke-width:1px;stroke-linecap:butt;stroke-linejoin:miter;stroke-opacity:1"
       d="m 273.41298,479.90197 10,-30 c 13.29351,6.23012 22.6415,30.57248 7.96268,43.5549 C 270,512.3622 195,517.3622 112.16877,502.83858"
       id="path4156-2"
       inkscape:connector-curvature="0"
       sodipodi:nodetypes="ccsc" />
    <path
       style="fill:none;fill-rule:evenodd;stroke:#000000;stroke-width:1px;stroke-linecap:butt;stroke-linejoin:miter;stroke-opacity:1"
       d="m 295.71456,464.90197 -17.30158,0"
       id="path4158-7"
       inkscape:connector-curvature="0"
       sodipodi:nodetypes="cc" />
    <path
       style="fill:none;fill-rule:evenodd;stroke:#000000;stroke-width:1px;stroke-linecap:butt;stroke-linejoin:miter;stroke-opacity:1"
       d="M 128.99474,513.71141 111.4021,502.3622 133.54501,499.16115"
       id="path4538"
       inkscape:connector-curvature="0"
       sodipodi:nodetypes="ccc" />
    <g
       style="font-style:oblique;font-variant:normal;font-weight:bold;font-stretch:condensed;font-size:30px;line-height:125%;font-family:Fetamont;-inkscape-font-specification:'Fetamont Bold Oblique Condensed';letter-spacing:0px;word-spacing:0px;fill:#000000;fill-opacity:1;stroke:none;stroke-width:1px;stroke-linecap:butt;stroke-linejoin:miter;stroke-opacity:1"
       id="text6164">
      <path
         d="m 298.44436,648.46809 c 0,-1.25 -1.15,-2.25 -2.5,-2.25 l -11.25,0 c -2.3,0 -5.6,0.3 -7.95,2.8 -2.5,2.65 -3.25,8.3 -3.95,11.05 -0.25,1 -0.7,2.3 -0.7,3.75 0,1.15 0.3,2.3 1.15,3.4 1.65,2.1 4.3,2.35 6.15,2.35 l 10.55,0 c 0.5,0 1,-0.05 1.25,0 -0.05,0.3 -0.15,0.75 -0.25,1.25 -0.65,2.55 -1.45,5.45 -2.4,6.75 -0.4,0.55 -1.15,0.85 -1.95,0.85 l -16.4,0 c -1.35,0 -2.5,1 -2.5,2.25 0,1.25 1.15,2.25 2.5,2.25 l 16.4,0 c 2.15,0 4.65,-0.85 6.15,-2.9 1.75,-2.45 2.45,-5.65 3.1,-8.2 0.15,-0.5 0.45,-1.4 0.45,-2.4 0,-0.85 -0.25,-1.8 -1,-2.7 -1.3,-1.5 -3.15,-1.7 -4.4,-1.7 -0.4,0 -0.7,0.05 -0.95,0.05 l -9.45,0 c -2.3,0 -3.15,-0.3 -3.2,-0.4 -0.05,-0.05 -0.05,-0.3 -0.05,-0.65 0,-0.6 0.1,-1.6 0.45,-2.95 0.7,-2.85 1.55,-7.75 2.85,-9.15 0.85,-0.95 2.2,-1.2 4.15,-1.2 l 11.25,0 c 1.35,0 2.5,-1 2.5,-2.25 z"
         style="font-size:50px;fill:#ffffff;stroke:#ffffff"
         id="path6314"
         inkscape:connector-curvature="0"
         sodipodi:nodetypes="sssccscsscccsssssccscssscsccsss" />
      <path
         d="m 318.45295,680.66809 c 0,-1.25 -1.15,-2.25 -2.5,-2.25 l -12.8,0 1.25,-7.05 10.3,0 c 1.35,0 2.5,-1 2.5,-2.25 0,-1.25 -1.18114,-2.53828 -2.5,-2.25 l -9.15,0 1.25,-3.05 13.9,0 c 1.35,0 2.5,-1 2.5,-2.25 0,-1.25 -1.15,-2.25 -2.5,-2.25 l -15.9,0 c -1.1,0 -2.2,0.7 -2.45,1.75 -1.6,6.35 -3.15,12.75 -4.75,19.1 -0.05,0.15 -0.1,0.3 -0.1,0.45 0,1.2 1.1,2.3 2.5,2.3 l 15.95,0 c 1.35,0 2.5,-1 2.5,-2.25 z"
         style="font-size:50px;fill:#ffffff;stroke:#ffffff"
         id="path6316"
         inkscape:connector-curvature="0"
         sodipodi:nodetypes="ssccsssccssssccssss" />
      <path
         d="m 334.42952,674.96809 c 0,0.65 0.3,1.3 0.9,1.75 l 2.85,2.1 c -1.15,0.15 -2.35,0.15 -3.7,0.15 -3.4,0 -5.6,-0.3 -6.25,-1.1 -0.3,-0.35 -0.45,-0.95 -0.45,-1.8 0,-1.15 0.25,-2.65 0.7,-4.45 0.75,-3 1.6,-5.5 3.4,-6.85 1.85,-1.4 4.45,-1.5 7.65,-1.5 3.4,0 5.55,0.3 6.2,1.1 0.3,0.35 0.45,0.95 0.45,1.8 0,1.15 -0.25,2.65 -0.7,4.45 -0.6,2.4 -1.25,4.5 -2.45,5.95 l -4.5,-3.35 c -0.45,-0.35 -1.05,-0.5 -1.6,-0.5 -1.25,0 -2.5,0.95 -2.5,2.25 z m 13.45,6.25 c 0,-0.7 -0.35,-1.3 -0.95,-1.75 2.15,-2.45 2.8,-5.5 3.4,-7.85 0.4,-1.5 0.95,-3.4 0.95,-5.35 0,-1.55 -0.4,-3.2 -1.55,-4.6 -2.25,-2.7 -5.9,-2.9 -8.7,-2.9 l -2.25,0 c -2.95,0 -6.85,0.1 -10.1,2.55 -3.45,2.6 -4.35,6.4 -5.05,9.3 -0.4,1.5 -0.95,3.4 -0.95,5.35 0,1.55 0.4,3.2 1.55,4.6 2.25,2.7 5.9,2.9 8.7,2.9 l 2.25,0 c 2.25,0 5.05,-0.05 7.7,-1.15 l 0.9,0.65 c 0.45,0.35 1.05,0.5 1.6,0.5 1.25,0 2.5,-0.95 2.5,-2.25 z"
         style="font-size:50px;fill:#ffffff;stroke:#ffffff"
         id="path6318"
         inkscape:connector-curvature="0" />
      <path
         d="m 358.76155,658.76809 c -1.15,0 -2.2,0.7 -2.45,1.75 l -2.55,10.1 c -0.4,1.65 -1.05,3.75 -1.05,5.8 0,1.3 0.25,2.65 1,3.85 1.85,3.1 5.65,3.2 8,3.2 l 0.6,0 c 2.5,0 6.25,-0.05 9.15,-2.7 2.95,-2.65 3.7,-6.35 4.4,-9.15 l 2.5,-10.1 c 0.05,-0.15 0.1,-0.35 0.1,-0.5 0,-1.15 -1.05,-2.25 -2.5,-2.25 -1.15,0 -2.2,0.7 -2.45,1.75 l -2.55,10.1 c -0.75,2.9 -1.55,5.6 -3.05,7 -1.3,1.2 -3.05,1.35 -5.6,1.35 -2.8,0 -3.9,-0.4 -4.2,-0.85 -0.2,-0.3 -0.25,-0.8 -0.25,-1.45 0,-1.25 0.3,-3.05 0.8,-5.05 l 2.5,-10.1 c 0.05,-0.15 0.1,-0.35 0.1,-0.5 0,-1.15 -1.05,-2.25 -2.5,-2.25 z"
         style="font-size:50px;fill:#ffffff;stroke:#ffffff"
         id="path6320"
         inkscape:connector-curvature="0" />
      <path
         d="m 395.19358,663.26809 c 3.4,0 5.55,0.3 6.2,1.1 0.3,0.35 0.45,0.95 0.45,1.8 0,1.15 -0.25,2.65 -0.7,4.45 -0.75,3 -1.6,5.5 -3.4,6.85 -1.85,1.4 -4.4,1.5 -7.6,1.5 -3.4,0 -5.6,-0.3 -6.25,-1.1 -0.3,-0.35 -0.45,-0.95 -0.45,-1.8 0,-1.15 0.25,-2.65 0.7,-4.45 0.75,-3 1.6,-5.5 3.4,-6.85 1.85,-1.4 4.45,-1.5 7.65,-1.5 z m -0.75,-4.5 c -2.95,0 -6.85,0.1 -10.1,2.55 -3.45,2.6 -4.35,6.4 -5.05,9.3 -0.4,1.5 -0.95,3.4 -0.95,5.35 0,1.55 0.4,3.2 1.55,4.6 2.25,2.7 5.9,2.9 8.7,2.9 l 2.25,0 c 2.95,0 6.85,-0.1 10.1,-2.55 3.45,-2.6 4.35,-6.4 5.05,-9.3 0.4,-1.5 0.95,-3.4 0.95,-5.35 0,-1.55 -0.4,-3.2 -1.55,-4.6 -2.25,-2.7 -5.9,-2.9 -8.7,-2.9 l -2.25,0 z"
         style="font-size:50px;fill:#ffffff;stroke:#ffffff"
         id="path6322"
         inkscape:connector-curvature="0" />
      <path
         d="m 409.72561,683.46809 c 1.15,0 2.2,-0.7 2.45,-1.75 l 5.1,-20.2 c 0.05,-0.15 0.05,-0.35 0.05,-0.5 0,-1.15 -1.05,-2.25 -2.5,-2.25 -1.15,0 -2.2,0.7 -2.45,1.75 l -5.05,20.2 c -0.05,0.15 -0.05,0.35 -0.05,0.5 0,1.15 1,2.25 2.45,2.25 z"
         style="font-size:50px;fill:#ffffff;stroke:#ffffff"
         id="path6324"
         inkscape:connector-curvature="0" />
      <path
         d="m 420.75139,683.46809 c 1.15,0 2.2,-0.7 2.45,-1.75 l 2.1,-10.35 12.05,0 -1.8,9.35 c -0.05,0.15 -0.1,0.35 -0.1,0.5 0,1.15 1.05,2.25 2.5,2.25 1.15,0 2.2,-0.7 2.45,-1.75 l 2.55,-12.1 c 0.4,-1.65 1.05,-1.75 1.05,-3.8 0,-1.3 -0.25,-2.65 -1,-3.85 -1.85,-3.1 -5.6,-3.2 -7.95,-3.2 l -0.6,0 c -2.5,0 -6.3,0 -9.2,2.65 -2.95,2.65 -3.7,4.4 -4.4,7.2 l -2.5,12.1 c -0.05,0.15 -0.05,0.35 -0.05,0.5 0,1.15 1,2.25 2.45,2.25 z m 5.75,-16.6 c 0.6,-1.8 1.3,-1.3 2.35,-2.25 1.3,-1.2 3.05,-1.35 5.6,-1.35 2.75,0 3.85,0.35 4.15,0.8 0.2,0.3 0.25,0.85 0.25,1.5 0,0.1 -0.15,0 -0.4,1.3 z"
         style="font-size:50px;fill:#ffffff;stroke:#ffffff"
         id="path6326"
         inkscape:connector-curvature="0"
         sodipodi:nodetypes="sccccssccscsscccssccssscc" />
    </g>
    <g
       id="g6309"
       transform="translate(-1.0568031,4.2272122)"
       style="fill:#ffffff;stroke:#ffffff">
      <path
         sodipodi:nodetypes="cc"
         inkscape:connector-curvature="0"
         id="path6290"
         d="m 417.86091,649.23038 2.75818,-11.12091"
         style="fill:#ffffff;fill-rule:evenodd;stroke:#ffffff;stroke-width:5;stroke-linecap:round;stroke-linejoin:miter;stroke-miterlimit:4;stroke-dasharray:none;stroke-opacity:1" />
      <path
         sodipodi:nodetypes="cc"
         inkscape:connector-curvature="0"
         id="path6290-7"
         d="m 413.51115,643.69698 11.4577,-0.0541"
         style="fill:#ffffff;fill-rule:evenodd;stroke:#ffffff;stroke-width:5;stroke-linecap:round;stroke-linejoin:miter;stroke-miterlimit:4;stroke-dasharray:none;stroke-opacity:1" />
    </g>
  </g>
  <g
     inkscape:groupmode="layer"
     id="layer2"
     inkscape:label="Calque 2"
     transform="translate(-267.19436,-639.80212)">
    <g
       transform="matrix(-0.0521182,-0.008567,-0.0108716,0.04107002,413.2655,700.88922)"
       id="g3"
       style="fill:#ffffff;stroke:#ffffff">
      <path
         style="fill:#ffffff;stroke:#ffffff"
         inkscape:connector-curvature="0"
         d="m 55.67,0.0802 6.81,0 c 27.05,2.05 52.78,11.82 77.46,22.53 12.38,-5.6 25.43,-10.38 39.08,-11.47 8.06,-0.76 15.73,2.58 22.9,5.85 16.9,8.17 32.78,18.27 48.28,28.81 12.02,-1.94 24.77,-1.82 36.21,2.77 6.62,3.35 12.15,8.45 17.88,13.1 44.06,38.16 85.08,79.64 127.87,119.2 7.59,7.14 15.98,13.38 23.31,20.8 23.7,24.12 45.26,50.22 66.98,76.09 5.75,3 12.3,4.16 18.61,5.46 22.06,3.84 44.6,3.7 66.9,2.67 22.64,1.85 45.35,2.81 68.05,3.21 7.99,-0.55 15.97,0.68 23.95,-0.04 50.92,-0.12 101.95,-3.8 152.06,-12.99 23.87,-4.45 47.53,-10.26 70.45,-18.33 14.5601,-4.97 28.48,-11.53 42.54,-17.71 47.09,-20.68 94,-41.88 142.2,-59.9 42.28,-15.83 86.25,-27.11 130.9501,-33.51 52.8199,-7.77 106.49,-10.36 159.7799,-6.57 67.78,4.89 135.65,20.71 195.7301,53.2 17.5399,9.47 34.1,20.6 50.89,31.32 32.96,21.57 65.6799,43.73 95.7999,69.19 11.4401,9.66 22.04,20.26 32.28,31.18 2.53,-3.41 -2.52,3.44 0,0 9.01,6.47 25.5599,7.8819 34.47,9.15 7.9501,-5.54 15.79,-11.75 25.3201,-14.33 10.8099,-3.07 22.3999,-0.92 32.5199,3.51 13.9,6.57 28.4501,11.54 42.8201,16.95 4.98,2.03 10.73,4.71 12.23,10.41 l 0,5.56 c -1.88,9.29 -6.87,17.5 -10.6801,26.07 -35.9399,73.79 -73.37,146.84 -111.73,219.4 -36.9299,69.3 -74.4,138.39 -115.64,205.25 -14.9299,23.78 -30.0199,47.59 -47.8099,69.38 -5.29,6.24 -10.73,12.49 -17.3101,17.41 -3.3999,2.41 -7.4099,4.76 -11.73,4.11 -3.25,-0.48 -5.27,-3.29 -7.34,-5.51 -27.12,-29.24 -54.98,-57.9 -79.53,-89.39 -8.75,-11.61 -17.73,-23.44 -22.86,-37.17 -4.99,7 5.13,-6.89 0,0 -8.8199,-6.6 -17.6699,-13.16 -26.5399,-19.67 12.76,-17.28 10.0099,-13.98 22.7499,-31.28 -41.84,-13.68 -84.11,-26.48 -127.38,-34.83 -14.8999,-2.63 -30.0299,-5.15 -45.2,-4.05 -9.86,1.35 -19.45,4.11 -29.11,6.43 -41.48,10.67 -82.71,22.29 -123.9501,33.84 -91.0099,25.56 -181.8099,51.87 -272.8199,77.4301 -21.98,5.99 -43.83,12.62 -66.26,16.7 -23.56,4.43 -47.78,7.16 -71.69,4.06 -13.49,-1.89 -27.04,-5.56 -38.59,-13.02 -24.63,-15.3 -48.31,-32.06 -72.12,-48.59 -60.04,-42.13 -119.36,-85.27 -178.32,-128.89 -32.91,-24.39 -65.66,-48.99 -98.14,-73.94 -29.06,-22.48 -58.17,-44.9399 -85.95,-68.99 -15.97,-13.66 -29.33,-29.96 -43.02,-45.81 -36.47,-43.1 -71.57,-87.35 -106.19,-131.95 -25.18,-32.56 -50.03,-65.39 -74.17,-98.74 -12.32,-17.08 -24.47,-34.29 -36.04,-51.89 -6.73,-10.4 -13.49,-20.83 -18.98,-31.95 -1.6,-3.21 -2.97,-6.57 -3.65,-10.11 l 0,-2.44 c 5.8,-11.07 15.23,-20 25.47,-27.01 -1.99,-12.96 -4.05,-25.91 -6.04,-38.87 -1.77,-10.81 1.07,-22.78 8.98,-30.64 C 35.49,4.2402 45.68,0.6602 55.67,0.0802 m -23.33,15.35 c -6.82,6.84 -8.98,17.26 -7.37,26.56 2,12.48 3.86,24.99 5.9,37.46 16.37,-1.12 32.78,-1.72 49.18,-1.25 7.24,0.68 14.22,2.91 21.01,5.42 15.19,5.87 29.65,13.47 43.73,21.62 10.07,6.05 20.37,11.92 29.2,19.75 14.71,12.67 29.05,25.75 43.43,38.79 49.57,45.22 98.87,90.73 147.86,136.56 16.67,-5.84 33.71,-10.65 50.99,-14.33 -12.56,-11.13 -24.74,-22.68 -36.98,-34.16 -52.01,-49.05 -103.6,-98.53 -155.74,-147.44 -24.66,-22.97 -49.13,-46.18 -74.72,-68.12 -4.29,-3.36 -8.18,-7.47 -13.32,-9.55 -15.9,-6.95 -32.24,-13 -49.08,-17.25 -9.64,-2.29 -19.49,-4.13 -29.44,-3.89 -9.01,0.22 -18.18,3.42 -24.65,9.83 m 113.08,10.86 c 7.5,5.91 14.63,12.27 21.79,18.59 24.22,21.73 47.98,43.98 71.67,66.28 50.53,47.51 100.57,95.53 151.08,143.06 11.05,10.12 21.71,20.75 33.29,30.24 16.41,-2.95 32.97,-5.61 49.69,-5.9 -23.35,-23.46 -47.01,-46.6 -70.53,-69.88 -29.84,-29.84 -59.41,-59.95 -89.05,-89.98 -21.71,-22.29 -43.59,-44.42 -64.91,-67.08 -2.1,-1.99 -4.66,-3.39 -7,-5.04 -14.54,-9.48 -29.24,-18.88 -45.12,-25.99 -5.42,-2.27 -11.17,-4.65 -17.18,-3.93 -11.73,1.01 -23,4.96 -33.73,9.63 m 109.81,24.23 c 6.02,6.7 12.4,13.08 18.61,19.61 39.04,40.32 78.53,80.2 118.01,120.08 29.36,29.41 59.15,58.39 88.52,87.79 11.49,0.55 23.11,-0.43 34.65,-0.3 -13.33,-16.16 -26.87,-32.14 -40.8,-47.78 -12.07,-13.28 -24.02,-26.84 -38.13,-38.02 -19.86,-17.71 -38.84,-36.37 -58.18,-54.64 -26.24,-24.81 -52.14,-50.03 -79.71,-73.38 -5.66,-4.39 -11.01,-9.85 -18.17,-11.64 -8.03,-2.33 -16.52,-2.53 -24.8,-1.72 m -225.87,34.73 c -9.68,6.07 -17.8,14.5 -24,24.07 1.98,7.66 6.18,14.48 10.08,21.28 13.47,22.45 28.65,43.82 43.84,65.12 23.77,33.07 48.32,65.57 73.18,97.82 36.41,47.07 73.38,93.71 111.81,139.15 13.16,15.15 25.95,30.79 41.26,43.86 26.69,23.16 54.65,44.78 82.58,66.4 33.55,25.85 67.43,51.27 101.45,76.5 61.43,45.46 123.27,90.38 185.9,134.19 20.89,14.47 41.74,29.04 63.3,42.51 13.36,8.8 29.43,12.26 45.16,13.6 27.36,1.85 54.63,-2.89 81.22,-8.95 21.05,-5.3 41.91,-11.3 62.82,-17.12 86.12,-24.31 172.09,-49.13 258.2299,-73.34 43.1901,-12.07 86.3501,-24.29 129.8501,-35.26 8.5699,-1.93 17.09,-4.52 25.9199,-4.92 16.8201,-0.45 33.48,2.49 49.9401,5.64 41.71,8.63 82.59,20.86 122.98,34.28 91.61,-126.74 183.05,-253.61 274.4301,-380.52 -11.52,-12.43 -23.65,-24.32 -36.77,-35.07 -30.41,-25.13 -63.2101,-47.16 -96.26,-68.63 -18.0601,-11.54 -35.97,-23.41 -55.22,-32.91 -59.2301,-29.81 -125.3101,-43.9 -191.1901,-47.92 -52.74,-3.11 -105.77,-0.04 -157.9301,8.13 -43.8999,6.74 -86.99,18.42 -128.45,34.3 -51.09,19.53 -100.92,42.18 -150.98,64.19 -16.07,7.34 -32.77,13.26 -49.72,18.21 -41.97,12.09 -85.4,18.32 -128.86,21.83 -55.54,4.18 -111.37,3.9 -166.9,-0.25 -10.67,0.72 -21.38,0.61 -32.07,0.53 -18.53,-0.87 -37.55,-1.93 -54.96,-8.94 -14.01,0.02 -28.02,0.68 -42.03,0.88 -24.66,0.24 -49.1,4.59 -73.01,10.38 -24,6.09 -47.8,13.68 -69.89,25 -9.84,5.26 -19.86,11.24 -26.32,20.61 -6.37,8.97 -8.46,20.35 -7.65,31.17 1.32,15.49 6.67,30.25 12.41,44.58 4.02,9.8 11.45,17.65 19.04,24.83 14.52,13.16 31.32,23.59 48.76,32.41 14.58,7.13 29.75,13.39 45.69,16.73 12.22,2.13 24.67,2.27 37.01,3.25 90.5,4.46 181.09,6.75 271.65,9.31 69.96,1.85 139.92,3.51 209.8701,5.1 -0.02,1.88 -0.0601,3.77 -0.08,5.67 -20.15,-1.02 -40.35,-0.84 -60.52,-1.61 -38.63,-0.77 -77.25,-1.84 -115.88,-2.78 -90.38,-2.4 -180.76,-4.82 -271.1,-8.54 -22.37,-1.15 -44.79,-1.85 -67.08,-4.14 -11.67,-1.7 -22.93,-5.49 -33.86,-9.83 -18.74,-7.63 -36.66,-17.35 -53.09,-29.18 -10.85,-7.89 -21.16,-16.82 -29.14,-27.68 -5.62,-7.53 -8.44,-16.6 -11.68,-25.3 -5.28,-15.2 -9.45,-31.53 -6.81,-47.69 2.03,-13.05 9.89,-24.72 20.58,-32.31 12.99,-9.22 27.67,-15.84 42.59,-21.27 -38.11,-35.88 -76.7,-71.28 -115.2,-106.76 -24.45,-22.3 -48.74,-44.79 -73.74,-66.48 -6.56,-5.92 -14.11,-10.58 -21.62,-15.19 -15.04,-9.07 -30.5,-17.56 -46.79,-24.18 -8.68,-3.34 -17.7,-6.69 -27.15,-6.42 -15.21,-0.13 -30.45,0.26 -45.6,1.66 m 1798.03,242.35 c -9.8201,4.76 -17.6,12.99 -27.92,16.79 -96.9,134.27 -193.61,268.69 -290.65,402.86 0.39,2.43 -1.0399,4.53 -3.5,4.86 -1.9399,2.5699 -3.7699,5.23 -5.7,7.81 1.27,6.15 4.27,11.75 7.4,17.14 7.01,11.71 15.49,22.44 24.0599,33.03 22.63,27.53 47.39,53.2 71.62,79.31 1.25,1.18 2.27,3.24 4.3401,2.95 3.26,-0.52 5.9299,-2.73 8.49,-4.69 7.63,-6.44 13.89,-14.31 20.0599,-22.12 13.42,-17.45 25.4501,-35.93 37.2201,-54.52 20.24,-32.22 39.2599,-65.18 57.97,-98.3 21.5,-38.34 42.45,-76.98 63.02,-115.83 37.26,-70.56 73.6899,-141.56 108.6799,-213.28 3.6901,-7.95 7.9,-15.7 10.89,-23.97 0.79,-2.97 2.34,-6.41 0.48,-9.29 -2.47,-2.88 -6.22,-4.09 -9.58,-5.54 -9.89,-3.73 -19.92,-7.11 -29.65,-11.25 -8.38,-3.38 -16.42,-8 -25.5,-9.25 -7.3699,-1.24 -15.0399,0 -21.7299,3.29 z"
         id="path5" />
      <path
         id="path7"
         transform="matrix(-18.387098,-3.8354563,-4.8672286,23.333382,11010.141,-14769.054)"
         d="m 403.2793,699.99805 c -0.15796,0.008 -0.31713,0.0313 -0.47071,0.0547 -0.90493,0.15597 -1.77195,0.41687 -2.63281,0.68165 -0.13989,0.0477 -0.28884,0.0827 -0.41992,0.14648 -0.75587,0.48132 1.24413,0.48132 -0.3418,-0.10352 -0.42273,-0.1042 -0.8667,-0.16947 -1.31054,-0.14257 -0.39263,0.0122 -0.73151,0.19241 -1.07422,0.32421 -1.69075,0.7228 -3.31387,1.53593 -4.95118,2.33008 -1.20659,0.58467 -2.39934,1.18889 -3.62695,1.7461 -0.85693,0.33828 -1.62695,0.79237 -2.40039,1.23437 -0.89604,0.523 -1.42251,0.84282 -2.29293,1.39231 2.47087,0.47752 2.64972,0.51369 4.6206,1.0183 5.86561,1.50179 19.62154,-7.31796 17.02194,-7.95748 -0.50846,-0.28372 -1.05198,-0.54163 -1.65234,-0.6836 -0.1527,-0.0405 -0.31079,-0.0488 -0.46875,-0.041 z m 5.3789,0.54101 c -0.92387,0.0303 -1.84185,0.13789 -2.74609,0.28711 -5.91212,0.53603 -25.17737,5.90695 -17.05342,8.02317 0.86059,0.29918 1.65243,0.46595 2.45775,0.84861 6.44125,-2.99884 12.44736,-6.78616 19.63278,-5.99677 0.24189,-0.49466 0.31868,-0.80536 0.55859,-1.30078 0.18502,-0.36816 0.18538,-0.81495 -0.0957,-1.1543 -0.26752,-0.31868 -0.71054,-0.52901 -1.17773,-0.61523 -0.51597,-0.0951 -1.04886,-0.10326 -1.57618,-0.0918 z"
         inkscape:connector-curvature="0"
         sodipodi:nodetypes="cccccccccccscccccccccccccc"
         style="fill:#ffffff;stroke:#ffffff" />
      <path
         inkscape:connector-curvature="0"
         d="m 31.196886,95.579084 c 27.786696,-1.410968 14.138202,0.423164 38.352558,1.08634 12.987208,2.081947 17.455763,5.735316 26.135763,9.075316 16.290003,6.62 24.389213,8.47117 39.429213,17.54117 7.51,4.61 24.39155,15.78189 30.95155,21.70189 25,21.69 54.39413,44.79897 78.84413,67.09897 38.5,35.48 59.202,51.06168 97.312,86.94168 -14.92,5.43 -21.06554,8.50398 -34.05554,17.72398 -10.69,7.59 -18.73591,23.0257 -20.76591,36.0757 -2.64,16.16 2.30738,40.26112 7.58738,55.46112 3.24,8.7 6.71908,23.23375 12.33908,30.76375 7.98,10.86 19.10119,24.52458 29.95119,32.41458 16.43,11.83 33.20081,21.31029 51.94081,28.94029 10.93,4.34 26.57792,13.45772 38.24792,15.15772 22.29,2.29 44.0552,5.6359 66.4252,6.7859 90.34,3.72 182.18244,1.51043 272.56244,3.91043 38.63,0.94 95.24126,-0.0632 133.87126,0.70682 20.17,0.77 22.09708,-2.72184 42.24708,-1.70184 0,0 7.44928,-20.48773 7.46928,-22.36773 -69.95,-1.59 -142.78299,-3.84929 -212.74309,-5.69929 -90.56,-2.56 -179.27411,-5.21959 -269.77411,-9.67959 -12.34,-0.98 -27.51088,-2.44846 -39.73088,-4.57846 -15.94,-3.34 -28.69332,-6.81321 -43.27332,-13.94321 -17.44,-8.82 -32.09371,-18.0414 -46.61371,-31.2014 -7.59,-7.18 -15.2904,-16.60819 -19.3104,-26.40819 -5.74,-14.33 -11.428,-24.59513 -12.748,-40.08513 -0.81,-10.82 0.2491,-20.13236 6.6191,-29.10236 6.46,-9.37 18.20379,-14.99042 28.04379,-20.25042 22.09,-11.32 38.80893,-16.5826 62.80893,-22.6726 23.91,-5.79 40.66052,-4.89593 71.1003,-6.97388 14.01,-0.2 24.14992,-2.42817 42.9088,-2.21847 19.4718,2.8747 39.1002,1.01803 57.6302,1.88803 10.69,0.08 21.4,0.19 32.07,-0.53 55.53,4.15 111.36,4.43 166.9,0.25 43.46,-3.51 86.89,-9.74 128.86,-21.83 16.95,-4.95 33.65,-10.87 49.72,-18.21 50.06,-22.01 99.89,-44.66 150.98,-64.19 41.46,-15.88 84.55,-27.56 128.45,-34.3 52.16,-8.17 105.1901,-11.24 157.9301,-8.13 65.88,4.02 131.96,18.11 191.1901,47.92 19.25,9.5 37.1599,21.37 55.22,32.91 33.0499,21.47 65.85,43.5 96.26,68.63 13.12,10.75 25.25,22.64 36.77,35.07 -91.38,126.91 -182.8201,253.78 -274.4301,380.52 -40.39,-13.42 -81.27,-25.65 -122.98,-34.28 -16.4601,-3.15 -33.12,-6.09 -49.9401,-5.64 -8.83,0.4 -17.35,2.99 -25.9199,4.92 -43.5,10.97 -86.66,23.19 -129.8501,35.26 -86.1399,24.21 -172.1099,49.03 -258.2299,73.34 -20.91,5.82 -41.77,11.82 -62.82,17.12 -26.59,6.0601 -53.86,10.8 -81.22,8.95 -15.73,-1.34 -31.8,-4.8 -45.16,-13.6 -21.56,-13.47 -42.41,-28.04 -63.3,-42.51 -62.63,-43.81 -124.47,-88.73 -185.9,-134.19 -34.02,-25.23 -67.9,-50.65 -101.45,-76.5 -27.93,-21.62 -55.89,-43.24 -82.58,-66.4 -15.31,-13.07 -28.1,-28.71 -41.26,-43.86 -38.43,-45.44 -75.4,-92.08 -111.81,-139.15 -24.86,-32.25 -49.41,-64.75 -73.18,-97.82 -15.19,-21.3 -30.37,-42.67 -43.84,-65.12 -3.9,-6.8 -3.689133,-8.89544 -5.6691331,-16.55544 6.2000001,-9.57 11.7460191,-12.39568 21.4260191,-18.465676 z"
         id="path13"
         sodipodi:nodetypes="cccccccccccccccccccccccccccccccccccccccccccccccccccccccccccccc"
         style="fill:#ffffff;stroke:#ffffff" />
      <path
         inkscape:connector-curvature="0"
         d="m 1827.39,327.6002 c 6.6899,-3.29 14.36,-4.53 21.73,-3.29 9.08,1.25 17.12,5.87 25.5,9.25 9.73,4.14 19.76,7.52 29.65,11.25 3.36,1.45 7.11,2.66 9.58,5.54 1.86,2.88 0.3101,6.32 -0.48,9.29 -2.99,8.27 -7.2,16.02 -10.89,23.97 -34.99,71.72 -71.4199,142.72 -108.6799,213.28 -20.5701,38.85 -41.52,77.49 -63.02,115.83 -18.7101,33.12 -37.73,66.08 -57.97,98.3 -11.77,18.59 -23.8,37.07 -37.2201,54.52 -6.1699,7.81 -12.4299,15.68 -20.0599,22.12 -2.5601,1.96 -5.23,4.17 -8.49,4.69 -2.0701,0.29 -3.0901,-1.77 -4.3401,-2.95 -24.23,-26.11 -48.99,-51.78 -71.62,-79.31 -8.5699,-10.59 -17.0499,-21.32 -24.0599,-33.03 -3.13,-5.39 -6.13,-10.99 -7.4,-17.14 1.9301,-2.58 3.76,-5.2401 5.7,-7.81 l 3.5,-4.86 c 97.04,-134.17 193.75,-268.59 290.65,-402.86 10.3199,-3.8 18.0998,-12.03 27.9199,-16.79 z"
         id="path15"
         style="fill:#ffffff;stroke:#ffffff" />
    </g>
  </g>
</svg>
