<?xml version="1.0" encoding="UTF-8" standalone="no"?>
<!-- Created with Inkscape (http://www.inkscape.org/) -->

<svg
   xmlns:dc="http://purl.org/dc/elements/1.1/"
   xmlns:cc="http://creativecommons.org/ns#"
   xmlns:rdf="http://www.w3.org/1999/02/22-rdf-syntax-ns#"
   xmlns:svg="http://www.w3.org/2000/svg"
   xmlns="http://www.w3.org/2000/svg"
   xmlns:sodipodi="http://sodipodi.sourceforge.net/DTD/sodipodi-0.dtd"
   xmlns:inkscape="http://www.inkscape.org/namespaces/inkscape"
   width="506.66516"
   height="506.38391"
   viewBox="0 0 506.66515 506.3839"
   id="svg2"
   version="1.1"
   inkscape:version="0.91 r13725"
   sodipodi:docname="icon.svg">
  <defs
     id="defs4" />
  <sodipodi:namedview
     id="base"
     pagecolor="#ffffff"
     bordercolor="#666666"
     borderopacity="1.0"
     inkscape:pageopacity="0.0"
     inkscape:pageshadow="2"
     inkscape:zoom="0.55587984"
     inkscape:cx="34.205335"
     inkscape:cy="233.10916"
     inkscape:document-units="px"
     inkscape:current-layer="layer1"
     showgrid="false"
     fit-margin-top="47.5"
     fit-margin-bottom="47.5"
     fit-margin-left="0"
     fit-margin-right="0"
     units="px"
     inkscape:window-width="1366"
     inkscape:window-height="723"
     inkscape:window-x="0"
     inkscape:window-y="19"
     inkscape:window-maximized="1" />
  <metadata
     id="metadata7">
    <rdf:RDF>
      <cc:Work
         rdf:about="">
        <dc:format>image/svg+xml</dc:format>
        <dc:type
           rdf:resource="http://purl.org/dc/dcmitype/StillImage" />
        <dc:title></dc:title>
      </cc:Work>
    </rdf:RDF>
  </metadata>
  <g
     inkscape:label="Calque 1"
     inkscape:groupmode="layer"
     id="layer1"
     transform="translate(-272.67343,-2527.9141)">
    <g
       id="g4147"
       transform="translate(401.51835,2453.6586)"
       style="fill:none;stroke:#f9f9f9">
      <path
         style="fill:none;stroke:#f9f9f9"
         d="m -607.02108,1805.4156 0,-750 1500,0 1499.99998,0 0,750 0,750 -1499.99998,0 -1500,0 0,-750 z"
         id="path4151"
         inkscape:connector-curvature="0" />
      <path
         style="fill:none;stroke:#f9f9f9;stroke-width:5;stroke-miterlimit:4;stroke-dasharray:none"
         d="m 58.948606,529.58865 c 61.327004,-4.7259 115.514154,-26.4251 161.139254,-64.5279 7.92735,-6.6204 22.5373,-20.86134 29.5473,-28.80103 35.8217,-40.57265 60.3148,-90.46695 70.63525,-143.88942 3.53395,-18.2929 4.61145,-29.20161 4.9273,-49.88381 l 0.26165,-17.13381 5.3107,-4.09971 c 14.93535,-11.52968 28.2527,-25.1383 39.92275,-40.79594 3.93225,-5.27589 4.9587,-6.93973 4.5398,-7.35866 -0.1504,-0.15039 -2.157,0.50618 -4.4591,1.45905 -10.84095,4.4872 -25.4613,8.85982 -37.68565,11.27095 -9.08485,1.79188 -13.25,2.32305 -13.25,1.68971 0,-0.25709 1.85625,-1.73402 4.125,-3.28207 15.6463,-10.676 29.48085,-28.36273 36.65715,-46.86428 0.907,-2.33829 1.4653,-4.43941 1.24075,-4.66916 -0.2246,-0.22975 -3.0779,1.03692 -6.34065,2.81482 -15.24995,8.30984 -32.60815,14.97465 -49.7773,19.11238 l -7.84505,1.89064 -5.15495,-4.65523 c -20.517,-18.52808 -43.59295,-27.6097 -70.15495,-27.6097 -50.30195,0 -92.4464,35.51132 -101.31005,85.36482 -1.56,8.77407 -1.58605,26.07171 -0.0516,34.25 0.5569,2.96826 0.79785,5.45382 0.55435,5.71896 -0.4823,0.5252 -12.17805,-0.28739 -21.44275,-1.48979 -26.454954,-3.43342 -52.684254,-10.53102 -76.904204,-20.81013 -26.8413499,-11.39166 -52.9786,-27.63122 -76.03135,-47.23968 -7.8487,-6.67604 -24.2429,-23.02334 -30.76735,-30.67936 -2.6951,-3.1625 -5.13575,-5.75 -5.4237,-5.75 -1.62385,0 -8.1669,15.38035 -10.6278,24.98206 -8.177846,31.90789 -0.949846,65.36182 19.61115,90.76794 3.8791,4.79319 12.90945,13.56176 17.26825,16.76767 3.8826,2.85567 4.3488,3.95965 1.5,3.55178 -1.03125,-0.14765 -3.225,-0.40283 -4.875,-0.56707 -9.33745,-0.92948 -22.5957,-4.74376 -31.75,-9.13419 -2.887496,-1.38485 -5.418746,-2.41469 -5.624996,-2.28854 -0.5286,0.32331 -0.46565,4.67892 0.1552,10.74237 3.712046,36.25189 25.484246,67.12703 58.392546,82.80642 5.5206,2.63032 15.3964,6.16746 19.224,6.88529 4.35645,0.81701 0.76475,2.08437 -9.8176,3.46423 -7.4323,0.96911 -18.90675,0.97634 -26.07915,0.0165 -3.025,-0.40484 -5.55625,-0.73795 -5.625,-0.74023 -0.4721,-0.0157 0.09145,2.3308 1.336,5.56281 3.50575,9.10424 9.63945,19.6863 15.9011,27.43303 3.9592,4.89821 13.38545,14.02323 18.19045,17.60923 15.4546,11.53373 34.5900001,18.83787 52.79375,20.1518 5.56745,0.40186 5.96045,0.51687 5.14095,1.50437 -1.1034,1.32945 -11.6636,8.60563 -18.5550499,12.7847 -20.3547001,12.34345 -43.4907001,21.33265 -66.6822001,25.9085 -19.04105,3.7569 -36.961,4.7378 -58.999996,3.2295 l -4.5,-0.308 1,1.0105 c 3.276,3.31035 31.572896,17.93365 45.559446,23.5443 32.5526,13.05825 64.57095,19.80015 100.94055,21.2543 6.88055,0.2751 24.0988,-0.21855 33.86075,-0.97085 z"
         id="path4149"
         inkscape:connector-curvature="0"
         sodipodi:nodetypes="csssscsscssssccsscsssccssssssssssssssssscsssscssscssscc" />
    </g>
  </g>
</svg>
